HIERARCHY
ROOT Hips
{
	OFFSET 0.000000 0.000000 0.000000
	CHANNELS 6 Xposition Yposition Zposition Zrotation Yrotation Xrotation 
	JOINT LowerBack
	{
		OFFSET 0.000000 0.000000 0.000000
		CHANNELS 3 Zrotation Yrotation Xrotation
		JOINT Spine
		{
			OFFSET 0.028270 2.035590 -0.193380
			CHANNELS 3 Zrotation Yrotation Xrotation
			JOINT Spine1
			{
				OFFSET 0.056720 2.048850 -0.042750
				CHANNELS 3 Zrotation Yrotation Xrotation
				JOINT Neck
				{
					OFFSET 0.000000 0.000000 0.000000
					CHANNELS 3 Zrotation Yrotation Xrotation
					JOINT Neck1
					{
						OFFSET -0.054170 1.746240 0.172020
						CHANNELS 3 Zrotation Yrotation Xrotation
						JOINT Head
						{
							OFFSET 0.104070 1.761360 -0.123970
							CHANNELS 3 Zrotation Yrotation Xrotation
							End Site
							{
								OFFSET 0.000000 0.000000 0.000000
							}
						}
					}
				}
				JOINT LeftShoulder
				{
					OFFSET 0.000000 0.000000 0.000000
					CHANNELS 3 Zrotation Yrotation Xrotation
					JOINT LeftArm
					{
						OFFSET 3.362410 1.200890 -0.311210
						CHANNELS 3 Zrotation Yrotation Xrotation
						JOINT LeftForeArm
						{
							OFFSET 4.983000 -0.000000 -0.000000
							CHANNELS 3 Zrotation Yrotation Xrotation
							JOINT LeftHand
							{
								OFFSET 3.483560 -0.000000 -0.000000
								CHANNELS 3 Zrotation Yrotation Xrotation
								JOINT LeftFingerBase
								{
									OFFSET 0.000000 0.000000 0.000000
									CHANNELS 3 Zrotation Yrotation Xrotation
									JOINT LeftHandIndex1
									{
										OFFSET 0.715260 -0.000000 -0.000000
										CHANNELS 3 Zrotation Yrotation Xrotation
										End Site
										{
											OFFSET 0.000000 0.000000 0.000000
										}
									}
								}
								JOINT LThumb
								{
									OFFSET 0.000000 0.000000 0.000000
									CHANNELS 3 Zrotation Yrotation Xrotation
									End Site
									{
										OFFSET 0.000000 0.000000 0.000000
									}
								}
							}
						}
					}
				}
				JOINT RightShoulder
				{
					OFFSET 0.000000 0.000000 0.000000
					CHANNELS 3 Zrotation Yrotation Xrotation
					JOINT RightArm
					{
						OFFSET -3.136600 1.374050 -0.404650
						CHANNELS 3 Zrotation Yrotation Xrotation
						JOINT RightForeArm
						{
							OFFSET -5.241900 -0.000000 -0.000000
							CHANNELS 3 Zrotation Yrotation Xrotation
							JOINT RightHand
							{
								OFFSET -3.444170 -0.000000 -0.000000
								CHANNELS 3 Zrotation Yrotation Xrotation
								JOINT RightFingerBase
								{
									OFFSET 0.000000 0.000000 0.000000
									CHANNELS 3 Zrotation Yrotation Xrotation
									JOINT RightHandIndex1
									{
										OFFSET -0.622530 -0.000000 -0.000000
										CHANNELS 3 Zrotation Yrotation Xrotation
										End Site
										{
											OFFSET 0.000000 0.000000 0.000000
										}
									}
								}
								JOINT RThumb
								{
									OFFSET 0.000000 0.000000 0.000000
									CHANNELS 3 Zrotation Yrotation Xrotation
									End Site
									{
										OFFSET 0.000000 0.000000 0.000000
									}
								}
							}
						}
					}
				}
			}
		}
	}
}
}
MOTION
Frames: 12
Frame Time: 0.008333
25.517641 16.046484 1.895855 163.954257 -82.344563 -150.437997 -8.567484 2.115575 -5.257660 -2.562207 2.615672 -4.251226 -5.393394 2.477838 -0.429474 7.453724 -2.942772 -8.777773 -2.413853 -0.172158 -0.360234 0.000000 0.000000 0.000000 -3.287880 16.673682 2.784218 -41.928404 17.982354 4.335655 -5.710476 -2.060522 -0.021017 2.135111 6.158885 0.125535 -0.197439 -0.024050 -0.000000 0.000000 0.000000 0.000000 0.000000 0.000000 0.000000 7.732861 4.956545 0.898930 49.423813 40.554214 22.501584 0.731489 69.717674 -0.011455 -2.000600 7.852561 -0.146057 0.020078 -0.476192 -0.000000 0.000000 0.000000 0.000000 0.000000 0.000000 0.000000 
25.338297 16.039401 1.911866 162.813213 -82.185237 -149.619921 -8.730338 2.120124 -5.053293 -2.613566 2.633837 -4.235003 -5.506554 2.498438 -0.498870 7.621438 -2.729730 -8.771475 -2.529282 -0.181000 -0.367902 0.000000 0.000000 0.000000 -3.665361 16.590241 2.806504 -42.426167 16.385660 3.256980 -5.660179 -0.856886 -0.019920 2.801690 6.015043 0.157044 -0.188576 -0.011275 -0.000000 0.000000 0.000000 0.000000 0.000000 0.000000 0.000000 8.257970 5.256514 0.908799 50.458840 38.990331 22.689695 0.777255 69.123475 -0.011938 -2.230641 7.851130 -0.163203 0.027803 -0.469854 -0.000000 0.000000 0.000000 0.000000 0.000000 0.000000 0.000000 
25.162764 16.032659 1.927913 161.397903 -82.036467 -148.524828 -8.902214 2.105758 -4.825638 -2.665135 2.633558 -4.215949 -5.621431 2.500345 -0.575865 7.788582 -2.507620 -8.751989 -2.651195 -0.190450 -0.372806 0.000000 0.000000 0.000000 -4.032244 16.435644 2.843724 -43.018104 14.793414 2.278534 -5.601526 0.089805 -0.019481 3.459614 6.006018 0.190455 -0.178526 0.001923 -0.000000 0.000000 0.000000 0.000000 0.000000 0.000000 0.000000 8.814376 5.556039 0.915577 51.535057 37.359736 22.800838 0.823631 68.419340 -0.012337 -2.439561 7.859013 -0.178856 0.034454 -0.462999 -0.000000 0.000000 0.000000 0.000000 0.000000 0.000000 0.000000 
24.991276 16.026360 1.943816 159.754717 -81.896868 -147.192104 -9.080672 2.058978 -4.576465 -2.715785 2.600520 -4.196171 -5.740232 2.468529 -0.666864 7.966962 -2.288512 -8.726245 -2.774834 -0.200083 -0.376172 0.000000 0.000000 0.000000 -4.403514 16.177110 2.920058 -43.686867 13.812375 1.538388 -5.542638 -0.532130 -0.021111 4.085731 6.654582 0.246474 -0.168016 0.014057 -0.000000 0.000000 0.000000 0.000000 0.000000 0.000000 0.000000 9.409772 5.869318 0.928260 52.656366 35.692294 22.829855 0.874356 67.573023 -0.012491 -2.612527 7.887231 -0.192314 0.040276 -0.455710 -0.000000 0.000000 0.000000 0.000000 0.000000 0.000000 0.000000 
24.823363 16.020858 1.959826 158.018889 -81.776165 -145.758832 -9.243699 2.000891 -4.312434 -2.760991 2.555029 -4.171960 -5.855603 2.423831 -0.757320 8.132063 -2.064724 -8.686131 -2.902527 -0.210090 -0.376292 0.000000 0.000000 0.000000 -4.744567 15.876441 2.998123 -44.475182 12.601543 0.923933 -5.477619 -0.986097 -0.022364 4.649581 7.182534 0.300296 -0.156941 0.026611 -0.000000 0.000000 0.000000 0.000000 0.000000 0.000000 0.000000 10.008918 6.158787 0.931653 53.831437 33.966527 22.727981 0.925865 66.564285 -0.012389 -2.728269 7.945598 -0.202185 0.044139 -0.447664 0.000000 0.000000 0.000000 0.000000 0.000000 0.000000 0.000000 
24.659001 16.016744 1.975360 156.123385 -81.678563 -144.162348 -9.403088 1.930011 -4.034975 -2.803936 2.496469 -4.143111 -5.969794 2.365514 -0.845652 8.295568 -1.864202 -8.630739 -3.034398 -0.220490 -0.372877 0.000000 0.000000 0.000000 -5.050476 15.497327 3.071767 -45.364877 11.186411 0.393591 -5.408664 -1.240831 -0.023079 5.139229 7.524059 0.345522 -0.145707 0.038879 -0.000000 0.000000 0.000000 0.000000 0.000000 0.000000 0.000000 10.637911 6.388753 0.936010 55.040280 32.229953 22.499885 0.980432 65.351337 -0.012109 -2.805666 8.044978 -0.210370 0.046555 -0.438799 -0.000000 0.000000 0.000000 0.000000 0.000000 0.000000 0.000000 
24.497738 16.014656 1.990803 154.190212 -81.603250 -142.524678 -9.536823 1.847677 -3.741778 -2.840040 2.424251 -4.111871 -6.086170 2.292447 -0.943875 8.450544 -1.666076 -8.554624 -3.167113 -0.231085 -0.363892 0.000000 0.000000 0.000000 -5.387901 15.066320 3.131212 -46.252293 9.734658 -0.181295 -5.343463 -1.599115 -0.022526 5.465953 7.446588 0.362060 -0.135528 0.047532 -0.000000 0.000000 0.000000 0.000000 0.000000 0.000000 0.000000 11.269762 6.585390 0.940415 56.309878 30.451194 22.091039 1.038980 63.920003 -0.011585 -2.833521 8.190693 -0.215867 0.047428 -0.428992 -0.000000 0.000000 0.000000 0.000000 0.000000 0.000000 0.000000 
24.339014 16.015534 2.005964 152.200438 -81.550769 -140.830988 -9.651289 1.761101 -3.442278 -2.871918 2.346383 -4.074527 -6.199136 2.213061 -1.028121 8.603406 -1.497589 -8.463957 -3.299748 -0.241651 -0.351339 0.000000 0.000000 0.000000 -5.653884 14.553394 3.186914 -47.275191 7.902246 -0.460166 -5.266250 -1.459564 -0.022098 5.805876 7.333590 0.377094 -0.124852 0.057368 -0.000000 0.000000 0.000000 0.000000 0.000000 0.000000 0.000000 11.915543 6.700636 0.942831 57.615974 28.683216 21.500172 1.099308 62.231667 -0.011085 -2.852930 8.388122 -0.222078 0.047143 -0.418067 -0.000000 0.000000 0.000000 0.000000 0.000000 0.000000 0.000000 
24.182469 16.020202 2.020877 150.199019 -81.516564 -139.123553 -9.738436 1.669084 -3.138453 -2.898125 2.260839 -4.033929 -6.313150 2.124894 -1.108691 8.756077 -1.354008 -8.356380 -3.429653 -0.252034 -0.334020 0.000000 0.000000 0.000000 -5.913502 13.972077 3.227626 -48.328787 5.888236 -0.589181 -5.184882 -1.134305 -0.021016 6.086510 6.928817 0.371931 -0.114770 0.064973 -0.000000 0.000000 0.000000 0.000000 0.000000 0.000000 0.000000 12.567104 6.744500 0.948269 58.966706 26.926111 20.695881 1.162508 60.274398 -0.010701 -2.890143 8.636566 -0.231001 0.046340 -0.405927 -0.000000 0.000000 0.000000 0.000000 0.000000 0.000000 0.000000 
24.027299 16.029414 2.035666 148.218856 -81.496372 -137.432815 -9.795728 1.574281 -2.838214 -2.918632 2.170134 -3.990226 -6.427818 2.030448 -1.179144 8.910716 -1.236142 -8.234413 -3.554588 -0.262008 -0.312460 0.000000 0.000000 0.000000 -6.159880 13.328786 3.254480 -49.419877 3.620161 -0.495808 -5.094425 -0.501193 -0.019762 6.383862 6.339682 0.355469 -0.104835 0.071733 -0.000000 0.000000 0.000000 0.000000 0.000000 0.000000 0.000000 13.217543 6.711506 0.955772 60.355468 25.195046 19.653470 1.226400 58.039560 -0.010625 -2.986248 8.933434 -0.246137 0.045518 -0.392468 -0.000000 0.000000 0.000000 0.000000 0.000000 0.000000 0.000000 
23.872960 16.043943 2.050351 146.287687 -81.482803 -135.780284 -9.821331 1.474732 -2.547629 -2.932968 2.072154 -3.945303 -6.544927 1.927535 -1.242383 9.072140 -1.155659 -8.101035 -3.672353 -0.271418 -0.286942 0.000000 0.000000 0.000000 -6.424991 12.628118 3.259844 -50.497194 1.255004 -0.270821 -4.999127 0.219622 -0.017750 6.660239 5.354656 0.311709 -0.095691 0.074836 0.000000 0.000000 0.000000 0.000000 0.000000 0.000000 0.000000 13.866901 6.593165 0.971943 61.771141 23.521521 18.372551 1.291087 55.521861 -0.011003 -3.194307 9.272379 -0.272380 0.045599 -0.377645 -0.000000 0.000000 0.000000 0.000000 0.000000 0.000000 0.000000 
23.719013 16.064269 2.065204 144.460500 -81.470282 -134.216623 -9.807641 1.365925 -2.271882 -2.938305 1.961896 -3.902666 -6.660452 1.810804 -1.307493 9.231950 -1.072384 -7.952087 -3.779248 -0.280040 -0.255795 0.000000 0.000000 0.000000 -6.703184 11.873928 3.257450 -51.572876 -0.970329 0.131717 -4.897592 0.524093 -0.015550 6.966565 4.224663 0.255753 -0.087205 0.074675 0.000000 0.000000 0.000000 0.000000 0.000000 0.000000 0.000000 14.477474 6.443836 0.994546 63.227579 21.863991 16.779974 1.353276 52.747914 -0.011849 -3.532543 9.645666 -0.312329 0.046555 -0.361596 -0.000000 0.000000 0.000000 0.000000 0.000000 0.000000 0.000000 
